<svg width="25" height="25" viewBox="0 0 25 25" fill="none" xmlns="http://www.w3.org/2000/svg">
<path d="M3.61133 1.26965C1.89271 1.26965 0.769043 2.39818 0.769043 3.88148C0.769043 5.33202 1.85924 6.49274 3.54538 6.49274H3.57799C5.33023 6.49274 6.42071 5.33202 6.42071 3.88148C6.38795 2.39818 5.33023 1.26965 3.61133 1.26965Z" fill="#EAECF0"/>
<path d="M1.06592 8.55652H6.09016V23.6721H1.06592V8.55652Z" fill="#EAECF0"/>
<path d="M18.4222 8.20154C15.7118 8.20154 13.8944 10.7484 13.8944 10.7484V8.55631H8.87V23.672H13.8941V15.2308C13.8941 14.7789 13.9269 14.3277 14.0596 14.0046C14.4228 13.1022 15.2494 12.1674 16.6374 12.1674C18.4554 12.1674 19.1826 13.5535 19.1826 15.5856V23.672H24.2064V15.0049C24.2064 10.362 21.7276 8.20154 18.4222 8.20154Z" fill="#EAECF0"/>
</svg>
