<svg width="50" height="50" viewBox="0 0 50 50" fill="none" xmlns="http://www.w3.org/2000/svg">
<path d="M4.89378 21.9256C4.6907 21.1679 4.69068 20.3701 4.8937 19.6124C5.09671 18.8547 5.49562 18.1638 6.05031 17.6092L17.6089 6.05058C18.1635 5.49588 18.8545 5.09698 19.6121 4.89396C20.3698 4.69094 21.1676 4.69097 21.9253 4.89404L32.7412 7.79217C32.8538 6.31042 33.3697 4.8877 34.233 3.67811L21.206 0.187884C20.2709 -0.0626333 19.2864 -0.0626282 18.3514 0.187901C17.4164 0.43843 16.5638 0.930658 15.8792 1.61511L1.61511 15.8792C0.930653 16.5638 0.438428 17.4164 0.187901 18.3514C-0.0626281 19.2864 -0.0626335 20.271 0.187884 21.206L3.81237 34.7326C4.99723 33.8278 6.40788 33.2658 7.89036 33.1082L4.89378 21.9256Z" fill="#18CDCA"/>
<path d="M42.0095 16.5175L45.1062 28.0739C45.3093 28.8317 45.3091 29.6294 45.1062 30.3869C44.903 31.1448 44.504 31.8356 43.9494 32.3903L32.3908 43.9491C31.8361 44.5038 31.1453 44.9025 30.3875 45.1057C29.6299 45.3085 28.8319 45.3085 28.0744 45.1057L16.8917 42.1091C16.7342 43.5916 16.1722 45.0023 15.2673 46.1871L28.794 49.8116C29.7289 50.0622 30.7135 50.0622 31.6484 49.8116C32.5836 49.5609 33.4361 49.0689 34.1207 48.3843L48.3848 34.1202C49.0694 33.4356 49.5614 32.5831 49.8121 31.6479C50.0627 30.713 50.0627 29.7284 49.8121 28.7935L46.0509 14.7604C44.8911 15.707 43.4926 16.3151 42.0095 16.5175Z" fill="#18CDCA"/>
<path d="M4.13755 36.5982C3.22146 37.5141 2.59759 38.6815 2.34484 39.9519C2.09209 41.2227 2.22181 42.5398 2.71759 43.7367C3.21335 44.9334 4.05292 45.9565 5.1301 46.6763C6.2073 47.3959 7.47371 47.7803 8.76925 47.7803C10.0648 47.7803 11.3312 47.3959 12.4084 46.6763C13.4856 45.9565 14.3252 44.9334 14.8209 43.7367C15.3167 42.5398 15.4464 41.2227 15.1936 39.9519C14.9409 38.6815 14.317 37.5141 13.401 36.5982C12.1716 35.3716 10.5059 34.6827 8.76925 34.6827C7.03263 34.6827 5.36691 35.3716 4.13755 36.5982Z" fill="#4F80E1"/>
<path d="M36.2595 3.7999C35.3435 4.71597 34.7194 5.88311 34.4669 7.15375C34.2141 8.42437 34.3437 9.74142 34.8396 10.9383C35.3354 12.1352 36.1748 13.1583 37.2519 13.878C38.3292 14.5978 39.5956 14.982 40.891 14.982C42.1867 14.982 43.4531 14.5978 44.5304 13.878C45.6075 13.1583 46.447 12.1352 46.9428 10.9383C47.4386 9.74142 47.5682 8.42437 47.3155 7.15375C47.0629 5.88311 46.4388 4.71597 45.5229 3.7999C44.2936 2.57331 42.6277 1.88444 40.891 1.88444C39.1546 1.88444 37.4887 2.57331 36.2595 3.7999Z" fill="#4F80E1"/>
<path d="M28.8448 42.3629C28.5817 42.3629 28.3199 42.3285 28.0658 42.2604L17.8295 39.5174C17.4881 37.6948 16.6039 36.0177 15.2927 34.7066C13.9814 33.3955 12.3045 32.511 10.4818 32.1698L7.73907 21.9342C7.6031 21.4237 7.60348 20.8864 7.74023 20.3761C7.87699 19.8657 8.14529 19.4002 8.51832 19.0261L19.0248 8.51934C19.3985 8.14558 19.864 7.87681 20.3746 7.74C20.8851 7.60322 21.4227 7.60325 21.9332 7.74009L31.8826 10.406C32.2772 12.2174 33.2097 13.8674 34.558 15.1398C35.9063 16.4122 37.6075 17.2478 39.4386 17.537L42.2594 28.0668C42.3953 28.5775 42.395 29.1149 42.258 29.625C42.1213 30.1355 41.8531 30.6009 41.4799 30.9752L30.9734 41.4817C30.6946 41.7619 30.3626 41.9843 29.9972 42.1354C29.6319 42.2867 29.2402 42.364 28.8448 42.3629Z" fill="#4F80E1"/>
</svg>
