<svg width="25" height="25" viewBox="0 0 25 25" fill="none" xmlns="http://www.w3.org/2000/svg">
<g clip-path="url(#clip0_1_1234)">
<path d="M24.9757 7.35007C24.9171 6.02172 24.7023 5.1085 24.3946 4.31717C24.0771 3.4772 23.5888 2.72518 22.9489 2.10002C22.3238 1.46513 21.5668 0.971793 20.7365 0.659308C19.9406 0.351593 19.0322 0.136784 17.7038 0.0782166C16.3656 0.0146894 15.9407 0 12.5465 0C9.15229 0 8.72744 0.0146894 7.39413 0.0732565C6.06579 0.131824 5.15256 0.346824 4.36143 0.654348C3.52127 0.971793 2.76925 1.46017 2.14409 2.10002C1.5092 2.72518 1.01605 3.48216 0.703375 4.3124C0.39566 5.1085 0.180851 6.01676 0.122284 7.34511C0.0587568 8.68338 0.0440674 9.10822 0.0440674 12.5024C0.0440674 15.8967 0.0587568 16.3215 0.117324 17.6548C0.175891 18.9832 0.390891 19.8964 0.698606 20.6877C1.01605 21.5277 1.5092 22.2797 2.14409 22.9049C2.76925 23.5398 3.52623 24.0331 4.35647 24.3456C5.15256 24.6533 6.06083 24.8681 7.38936 24.9267C8.72248 24.9854 9.14752 24.9999 12.5417 24.9999C15.9359 24.9999 16.3608 24.9854 17.6941 24.9267C19.0224 24.8681 19.9357 24.6533 20.7268 24.3456C22.4069 23.696 23.7353 22.3677 24.3849 20.6877C24.6924 19.8916 24.9074 18.9832 24.966 17.6548C25.0245 16.3215 25.0392 15.8967 25.0392 12.5024C25.0392 9.10822 25.0342 8.68338 24.9757 7.35007ZM22.7244 17.5571C22.6706 18.7781 22.4655 19.4374 22.2946 19.8769C21.8745 20.966 21.0101 21.8304 19.921 22.2505C19.4814 22.4214 18.8174 22.6265 17.6012 22.6801C16.2826 22.7389 15.8871 22.7534 12.5515 22.7534C9.21581 22.7534 8.81538 22.7389 7.50154 22.6801C6.2806 22.6265 5.62129 22.4214 5.18175 22.2505C4.63977 22.0502 4.14643 21.7328 3.746 21.3176C3.33088 20.9123 3.01343 20.4239 2.81312 19.8819C2.64219 19.4424 2.43711 18.7781 2.3835 17.5621C2.32475 16.2435 2.31025 15.8478 2.31025 12.5122C2.31025 9.17652 2.32475 8.77609 2.3835 7.46243C2.43711 6.24149 2.64219 5.58218 2.81312 5.14264C3.01343 4.60047 3.33088 4.10732 3.75096 3.7067C4.15616 3.29158 4.64453 2.97414 5.18671 2.77402C5.62625 2.60309 6.29052 2.39801 7.5065 2.34421C8.82511 2.28564 9.22077 2.27095 12.5562 2.27095C15.8968 2.27095 16.2923 2.28564 17.6062 2.34421C18.8271 2.39801 19.4864 2.60309 19.9259 2.77402C20.4679 2.97414 20.9613 3.29158 21.3617 3.7067C21.7768 4.11209 22.0943 4.60047 22.2946 5.14264C22.4655 5.58218 22.6706 6.24626 22.7244 7.46243C22.7829 8.78105 22.7976 9.17652 22.7976 12.5122C22.7976 15.8478 22.7829 16.2385 22.7244 17.5571Z" fill="#EAECF0"/>
<path d="M12.5464 6.08014C9.00092 6.08014 6.12427 8.9566 6.12427 12.5023C6.12427 16.048 9.00092 18.9244 12.5464 18.9244C16.0921 18.9244 18.9686 16.048 18.9686 12.5023C18.9686 8.9566 16.0921 6.08014 12.5464 6.08014ZM12.5464 16.6682C10.2463 16.6682 8.38053 14.8026 8.38053 12.5023C8.38053 10.202 10.2463 8.3364 12.5464 8.3364C14.8468 8.3364 16.7123 10.202 16.7123 12.5023C16.7123 14.8026 14.8468 16.6682 12.5464 16.6682Z" fill="#EAECF0"/>
<path d="M20.7219 5.82631C20.7219 6.65426 20.0506 7.32559 19.2224 7.32559C18.3945 7.32559 17.7231 6.65426 17.7231 5.82631C17.7231 4.99816 18.3945 4.32703 19.2224 4.32703C20.0506 4.32703 20.7219 4.99816 20.7219 5.82631Z" fill="#EAECF0"/>
</g>
<defs>
<clipPath id="clip0_1_1234">
<rect width="25" height="25" fill="white"/>
</clipPath>
</defs>
</svg>
